<svg width="24" height="24" viewBox="0 0 24 24" fill="none" xmlns="http://www.w3.org/2000/svg">
                                <path fill-rule="evenodd" clip-rule="evenodd" d="M12 0C8.7408 0 8.3328 0.0136 7.0528 0.072C5.7752 0.1304 4.9024 0.3336 4.1392 0.6304C3.3392 0.9312 2.6136 1.4032 2.0136 2.0144C1.40338 2.61371 0.931087 3.3388 0.6296 4.1392C0.3344 4.9024 0.1304 5.776 0.072 7.0536C0.0144 8.3328 0 8.74 0 12C0 15.26 0.0136 15.6672 0.072 16.9472C0.1304 18.2248 0.3336 19.0976 0.6304 19.8608C0.9312 20.6608 1.4032 21.3864 2.0144 21.9864C2.61372 22.5966 3.33881 23.0689 4.1392 23.3704C4.9024 23.6664 5.7752 23.8696 7.0528 23.928C8.3328 23.9864 8.7408 24 12 24C15.2592 24 15.6672 23.9864 16.9472 23.928C18.2248 23.8696 19.0976 23.6664 19.8608 23.3696C20.6608 23.0688 21.3864 22.5968 21.9864 21.9856C22.5966 21.3863 23.0689 20.6612 23.3704 19.8608C23.6664 19.0976 23.8696 18.2248 23.928 16.9472C23.9864 15.6672 24 15.2592 24 12C24 8.7408 23.9864 8.3328 23.928 7.0528C23.8696 5.7752 23.6664 4.9024 23.3696 4.1392C23.0683 3.33845 22.596 2.61306 21.9856 2.0136C21.3863 1.40338 20.6612 0.931087 19.8608 0.6296C19.0976 0.3344 18.224 0.1304 16.9464 0.072C15.6672 0.0144 15.26 0 12 0ZM12 2.1624C15.204 2.1624 15.584 2.1744 16.8496 2.232C18.0192 2.2856 18.6544 2.48 19.0776 2.6456C19.6376 2.8624 20.0376 3.1232 20.4576 3.5424C20.8776 3.9624 21.1376 4.3624 21.3544 4.9224C21.5192 5.3456 21.7144 5.9808 21.768 7.1504C21.8256 8.416 21.8376 8.796 21.8376 12C21.8376 15.204 21.8256 15.584 21.768 16.8496C21.7144 18.0192 21.52 18.6544 21.3544 19.0776C21.1623 19.5988 20.8559 20.0704 20.4576 20.4576C20.0705 20.856 19.5989 21.1624 19.0776 21.3544C18.6544 21.5192 18.0192 21.7144 16.8496 21.768C15.584 21.8256 15.2048 21.8376 12 21.8376C8.7952 21.8376 8.416 21.8256 7.1504 21.768C5.9808 21.7144 5.3456 21.52 4.9224 21.3544C4.40116 21.1623 3.92961 20.8559 3.5424 20.4576C3.14414 20.0704 2.8377 19.5988 2.6456 19.0776C2.4808 18.6544 2.2856 18.0192 2.232 16.8496C2.1744 15.584 2.1624 15.204 2.1624 12C2.1624 8.796 2.1744 8.416 2.232 7.1504C2.2856 5.9808 2.48 5.3456 2.6456 4.9224C2.8624 4.3624 3.1232 3.9624 3.5424 3.5424C3.92955 3.14404 4.40113 2.83758 4.9224 2.6456C5.3456 2.4808 5.9808 2.2856 7.1504 2.232C8.416 2.1744 8.796 2.1624 12 2.1624Z" fill="#0D99D4"></path>
                                <path fill-rule="evenodd" clip-rule="evenodd" d="M11.9864 15.8663C11.476 15.8663 10.9707 15.7641 10.4992 15.5657C10.0277 15.3672 9.59934 15.0764 9.23848 14.7097C8.87763 14.343 8.59138 13.9077 8.39609 13.4286C8.20079 12.9495 8.10027 12.436 8.10027 11.9175C8.10027 11.3989 8.20079 10.8854 8.39609 10.4063C8.59138 9.92722 8.87763 9.49191 9.23848 9.12523C9.59934 8.75855 10.0277 8.46768 10.4992 8.26924C10.9707 8.07079 11.476 7.96865 11.9864 7.96865C13.017 7.96865 14.0055 8.38469 14.7342 9.12523C15.463 9.86577 15.8725 10.8702 15.8725 11.9175C15.8725 12.9647 15.463 13.9691 14.7342 14.7097C14.0055 15.4502 13.017 15.8663 11.9864 15.8663ZM11.9864 5.83449C10.3987 5.83449 8.87603 6.47537 7.75337 7.61615C6.6307 8.75692 6 10.3042 6 11.9175C6 13.5308 6.6307 15.078 7.75337 16.2188C8.87603 17.3595 10.3987 18.0004 11.9864 18.0004C13.574 18.0004 15.0967 17.3595 16.2194 16.2188C17.342 15.078 17.9727 13.5308 17.9727 11.9175C17.9727 10.3042 17.342 8.75692 16.2194 7.61615C15.0967 6.47537 13.574 5.83449 11.9864 5.83449ZM19.7143 5.72403C19.7143 6.10539 19.5652 6.47112 19.2998 6.74078C19.0344 7.01044 18.6745 7.16193 18.2992 7.16193C17.9239 7.16193 17.564 7.01044 17.2986 6.74078C17.0332 6.47112 16.8842 6.10539 16.8842 5.72403C16.8842 5.34268 17.0332 4.97694 17.2986 4.70728C17.564 4.43763 17.9239 4.28613 18.2992 4.28613C18.6745 4.28613 19.0344 4.43763 19.2998 4.70728C19.5652 4.97694 19.7143 5.34268 19.7143 5.72403Z" fill="#0D99D4"></path>
                            </svg>